<svg version="1.1" xmlns="http://www.w3.org/2000/svg" style="display: block;" viewBox="0 0 1428 1332" width="357" height="333" preserveAspectRatio="none">
<path transform="translate(0,0)" fill="rgb(61,138,192)" d="M 382.21 606.709 C 379.451 605.368 367.295 601.775 362.98 600.195 C 344.964 593.687 328.505 583.491 314.655 570.259 C 275.243 532.726 250.074 477.932 248.912 423.415 C 248.263 371.383 267.889 321.14 303.635 283.324 C 385.52 198.137 509.509 192.528 597.285 276.688 C 627.816 305.961 654.01 361.045 654.58 403.981 C 658.395 406.393 675.343 409.866 680.07 409.471 C 689.551 404.693 698.642 392.592 706.689 385.189 C 781.379 316.479 890.048 300.322 985.523 330.097 C 1052.66 351.034 1120.83 407.016 1153.08 470.922 C 1171.38 506.978 1180.66 546.929 1180.15 587.357 C 1219.3 588.354 1271.42 625.249 1297.46 652.931 C 1428.84 792.615 1334.12 1025.45 1140.3 1027.07 C 1070.96 1027.65 999.518 1027.86 930.026 1028.33 L 651.674 1030.41 L 525.594 1031.16 C 504.009 1031.23 480.214 1031.88 458.873 1031.25 C 406.164 1029.96 356.117 1007.83 319.709 969.689 C 279.799 927.389 262.693 874.312 264.529 816.66 C 266.167 762.901 289.076 711.99 328.224 675.11 C 340.668 663.466 365.375 645.138 382.176 641.174 C 381.327 630.188 380.054 617.528 382.21 606.709 z"/>
<path transform="translate(0,0)" fill="rgb(251,158,156)" d="M 382.21 606.709 C 379.451 605.368 367.295 601.775 362.98 600.195 C 344.964 593.687 328.505 583.491 314.655 570.259 C 275.243 532.726 250.074 477.932 248.912 423.415 C 248.263 371.383 267.889 321.14 303.635 283.324 C 385.52 198.137 509.509 192.528 597.285 276.688 C 627.816 305.961 654.01 361.045 654.58 403.981 C 639.293 407.229 610.589 403.29 591.622 405.977 C 524.104 415.538 457.468 454.949 417.349 510.19 C 403.349 530.115 395.069 548.909 389.59 572.626 C 388.309 578.169 383.786 604.831 382.21 606.709 z"/>
<path transform="translate(0,0)" fill="rgb(192,234,253)" d="M 883.637 388.439 C 885.736 388.352 887.836 388.292 889.936 388.259 C 968.536 386.602 1042.05 426.98 1082.83 494.199 C 1090.78 507.567 1099.02 524.137 1102.85 539.316 C 1105.77 550.999 1107.67 562.913 1108.53 574.925 C 1109.77 592.681 1106.7 630.016 1117.39 642.533 C 1135.89 659.414 1162.97 655.564 1187.61 664.539 C 1324.79 714.504 1315.62 916.184 1173.36 950.797 C 1153.05 955.738 1128.1 954.42 1106.48 954.594 L 1021.15 955.001 L 734.5 956.996 L 542.999 958.168 C 512.89 958.404 461.983 962.073 434.004 955.863 C 368.306 941.278 322.858 863.882 338.737 798.497 C 348.021 759.495 375.423 727.299 412.439 711.899 C 423.432 707.319 439.986 703.511 449.417 697.385 C 451.833 684.341 450.446 666.011 450.096 652.404 C 448.872 604.829 459.878 565.832 493.546 530.666 C 539.894 480.629 607.677 479.99 670.844 481.892 C 713.88 483.187 707.52 486.652 735.685 454.687 C 773.512 411.757 826.906 391.195 883.637 388.439 z"/>
<path transform="translate(0,0)" fill="rgb(251,158,156)" d="M 981.636 1081.22 C 1000.73 1080.06 1018.61 1084.85 1026.66 1103.5 C 1040.41 1135.38 1064.14 1180.63 1070.68 1213.75 C 1076.78 1244.62 1047.81 1286.82 1020.26 1297.58 C 1011.27 1301.09 1006 1302.56 996.276 1303.66 C 978.981 1304.91 961.729 1300.7 946.955 1291.62 C 919.879 1275 902.936 1244.34 909.094 1212.19 C 912.526 1194.27 922.138 1177.31 929.045 1160.49 C 937.469 1139.98 944.281 1118.29 955.733 1099.23 C 962.586 1087.91 968.692 1084.18 981.636 1081.22 z"/>
<path transform="translate(0,0)" fill="rgb(251,158,156)" d="M 696.04 137.288 C 706.141 136.493 717.234 137.785 725.496 143.945 C 773.259 179.552 692.367 246.975 658.705 251.572 C 624.789 254.019 604.34 228.904 620.16 200.128 C 632.101 178.409 672.634 144.442 696.04 137.288 z"/>
<path transform="translate(0,0)" fill="rgb(251,158,156)" d="M 446.824 41.3308 C 470.899 39.0886 489.343 45.6957 493.594 72.6243 C 497.923 100.046 499.193 136.096 484.63 160.838 C 479.532 169.5 473.204 172.516 463.724 174.457 C 407.551 181.798 408.707 97.7467 422.542 62.5824 C 426.701 52.009 436.314 45.077 446.824 41.3308 z"/>
<path transform="translate(0,0)" fill="rgb(251,158,156)" d="M 152.95 373.449 C 167.057 373.456 183.68 376.229 194.135 386.49 C 200.923 393.216 204.769 402.359 204.828 411.916 C 204.861 415.433 204.296 419.228 203.3 422.605 C 193.404 456.142 153.994 452.951 125.629 453.226 C 111.792 453.344 91.9248 450.777 82.4471 441.148 C 60.4014 418.751 74.0475 385.595 102.803 378.121 C 120.835 373.435 135.427 373.837 152.95 373.449 z"/>
<path transform="translate(0,0)" fill="rgb(251,158,156)" d="M 211.619 138.175 C 218.371 137.97 222.834 137.985 229.301 141.692 C 252.52 155.886 283.862 183.448 294.096 208.813 C 301.943 228.26 290.085 245.917 271.13 251.919 C 260.859 252.615 251.759 253.162 242.136 248.312 C 211.343 232.79 151.931 156.557 211.619 138.175 z"/>
<path transform="translate(0,0)" fill="rgb(251,158,156)" d="M 252.077 588.286 C 259.443 587.695 270.467 588.172 276.078 593.518 C 308.809 624.703 260.651 662.484 238.256 681.843 C 229.41 689.49 220.039 693.148 209.287 694.461 C 201.731 694.967 195.262 694.067 189.089 689.715 C 154.41 665.182 187.349 631.272 209.438 612.512 C 222.183 601.689 235.111 591.208 252.077 588.286 z"/>
</svg>