<svg version="1.1" xmlns="http://www.w3.org/2000/svg" style="display: block;" viewBox="0 0 1428 1332" width="357" height="333" preserveAspectRatio="none">
<defs>
	<linearGradient id="Gradient1" gradientUnits="userSpaceOnUse" x1="617.642" y1="1304.29" x2="618.299" y2="1288.17">
		<stop class="stop0" offset="0" stop-opacity="0" stop-color="rgb(170,194,240)"/>
		<stop class="stop1" offset="1" stop-opacity="0.00784314" stop-color="rgb(97,175,215)"/>
	</linearGradient>
	<linearGradient id="Gradient2" gradientUnits="userSpaceOnUse" x1="773.587" y1="1301.1" x2="771.858" y2="1285.82">
		<stop class="stop0" offset="0" stop-opacity="0" stop-color="rgb(179,209,246)"/>
		<stop class="stop1" offset="1" stop-opacity="0.00784314" stop-color="rgb(133,186,218)"/>
	</linearGradient>
</defs>
<path transform="translate(0,0)" fill="rgb(61,139,193)" d="M 215.775 273.562 C 322.515 103.665 496.977 18.0203 696.323 30.2272 C 705.484 33.2278 723.725 31.5542 733.675 32.8596 C 740.059 33.6972 746.432 34.2459 752.783 35.7269 C 823.235 48.0877 897.165 72.5183 953.11 118.532 C 962.644 126.373 974.812 141.684 983.425 151.386 C 1000.85 154.937 1016.1 154.642 1033.56 159.45 C 1088.39 174.539 1142.23 220.432 1173.4 267.194 C 1198.16 304.335 1219.98 358.362 1229.79 401.597 C 1233.3 417.077 1235.14 432.398 1237.33 447.948 C 1239.57 482.625 1240.6 507.988 1239.21 542.907 C 1237.57 556.976 1236.52 571.756 1235.2 585.895 C 1228.91 652.88 1207.65 716.362 1195.45 781.817 C 1183.3 847.031 1192.75 935.291 1234.46 989.585 C 1249.64 1009.35 1287.09 1041.19 1256.05 1070.87 C 1253.16 1073.62 1244.66 1078.72 1242.66 1081.25 C 1229.36 1087.86 1214.78 1095.74 1200.89 1100.53 C 1156.99 1115.64 1108 1114.08 1064.28 1099.62 L 1063.24 1099.27 C 1055.47 1114.68 1033.88 1137.65 1021.88 1150.75 C 966.477 1211.22 914.431 1247.26 838.911 1277.3 C 806.093 1290.58 778.82 1296.15 743.673 1301.07 C 734.626 1302.33 721.431 1302.58 713.507 1303.89 C 700.823 1303.38 683.037 1303.47 670.312 1303.86 C 663.006 1302.74 650.141 1303.06 641.064 1301.89 C 615.116 1298.54 594.75 1293.76 570.04 1286.48 C 554.083 1279.8 536.109 1273.69 520.615 1266.71 C 494.754 1255.06 461.463 1236.26 438.459 1219.58 C 400.45 1190.45 356.786 1154.4 328.435 1115.26 C 296.609 1071.31 261.447 1023.44 233.051 977.437 C 186.197 901.539 158.479 810.876 144.156 723.414 C 138.156 686.775 136.659 647.665 136.653 610.55 C 136.81 590.165 135.919 564.703 137.362 544.582 C 142.802 468.707 158.97 390.099 190.626 320.647 C 196.107 308.623 208.387 283.565 215.775 273.562 z"/>
<path transform="translate(0,0)" fill="rgb(193,235,253)" d="M 908.148 356.526 C 915.204 359.527 934.974 380.703 942.078 387.347 C 1000.69 442.166 1043.36 515.478 1063.23 593.148 C 1087.73 688.956 1083.73 790.497 1060.54 886.101 C 1047.64 939.764 1031.13 982.854 1004.17 1030.97 C 905.119 1207.72 691.403 1273.15 514.434 1170.26 C 356.583 1073.06 294.971 886.255 295.858 709.927 C 295.958 690.091 295.452 669.992 296.942 650.212 C 345.133 651.639 398.748 652.627 446.843 645.507 C 500.137 637.617 560.094 620.903 610.479 601.869 C 639.796 590.794 670.15 572.57 696.708 556.41 C 781.834 504.616 848.565 435.722 908.148 356.526 z"/>
<path transform="translate(0,0)" fill="url(#Gradient2)" d="M 713.507 1303.89 C 721.431 1302.58 734.626 1302.33 743.673 1301.07 C 778.82 1296.15 806.093 1290.58 838.911 1277.3 L 844.268 1278.24 L 844.687 1279.63 C 843.936 1279.83 835.965 1281.85 835.811 1281.93 C 832.638 1283.98 832.744 1285.32 828.8 1286.49 C 792.825 1297.2 754.297 1306.11 716.602 1306.15 C 713.548 1306.15 703.559 1306.76 701.371 1305.47 C 705.611 1304.5 716.956 1304.69 721.834 1304.63 L 713.507 1303.89 z"/>
<path transform="translate(0,0)" fill="url(#Gradient1)" d="M 670.312 1303.86 C 665.63 1304.64 657.8 1304.53 652.818 1304.62 C 663.464 1304.74 674.108 1305.03 684.746 1305.48 C 677.977 1306.45 649.059 1306.54 642.361 1305.77 C 628.784 1304.2 568.366 1295.04 561.045 1287.77 L 561.466 1286.02 L 563.579 1285.25 C 566.419 1286.7 566.891 1286.98 570.04 1286.48 C 594.75 1293.76 615.116 1298.54 641.064 1301.89 C 650.141 1303.06 663.006 1302.74 670.312 1303.86 z"/>
</svg>