<svg version="1.1" xmlns="http://www.w3.org/2000/svg" style="display: block;" viewBox="0 0 1428 1332" width="357" height="333" preserveAspectRatio="none">
<path transform="translate(0,0)" fill="rgb(61,139,192)" d="M 648.197 15.4397 C 658.702 15.0494 669.214 14.8672 679.727 14.8932 C 990.798 13.8107 1208.57 241.302 1221.56 541.139 C 1221.87 548.436 1222.42 555.327 1222.44 562.698 C 1230.88 565.909 1243.56 573.672 1251.04 579.045 C 1335.59 639.798 1343.47 777.385 1285.61 858.572 C 1263.61 889.439 1233.93 918.307 1199.23 933.662 C 1190.35 937.591 1174.54 939.77 1164.67 941.457 C 1159.9 950.791 1156.79 963.948 1152.7 974.235 C 1086.87 1139.93 940.413 1284.45 751.772 1295.15 C 737.108 1297.32 721.999 1297.03 707.075 1297.17 C 519.102 1299.04 356.68 1169.03 273.23 1007.64 C 261.274 984.52 250.716 964.316 245.332 938.63 C 133.98 919.582 59.9931 781.334 85.0133 675.916 C 98.9157 617.342 122.911 586.899 171.995 554.779 C 171.674 551.321 171.424 547.857 171.246 544.388 C 157.421 279.073 349.289 37.7557 621.695 16.8022 C 630.476 16.1267 639.389 15.8766 648.197 15.4397 z M 1192.82 832.52 C 1234.07 797.427 1244.88 736.097 1228 686.75 C 1226.08 681.133 1225.71 674.977 1220.59 671.329 C 1215.61 720.971 1209.17 772.021 1191.64 818.971 C 1188.8 826.577 1185.9 834.16 1182.98 841.736 L 1192.82 832.52 z M 222.93 834.812 C 221 826.801 216.232 814.915 213.541 806.162 C 211.74 802.274 208.942 791.481 207.586 786.924 C 198.789 757.359 193.409 727.375 188.629 696.968 C 187.584 690.323 186.95 674.415 184.966 669.625 L 183.438 669.381 C 177.639 675.561 173.025 703.39 171.182 713.03 C 169.611 723.145 169.173 737.247 172.071 747.135 C 173.423 766.458 204.107 832.769 222.93 834.812 z"/>
<path transform="translate(0,0)" fill="rgb(193,235,253)" d="M 652.23 98.4249 C 666.784 97.3342 683.099 98.2942 697.741 98.5898 C 798.857 100.631 898.227 135.45 976.386 199.776 C 1072.96 279.257 1124.08 402.329 1133.43 525.011 C 1135.74 555.368 1135.39 582.958 1134.1 614.112 C 1129.04 735.685 1108.05 868.978 1059.35 981.033 C 1044.56 1015.04 1016.45 1053.92 992.588 1082.17 C 929.48 1157.67 838.814 1204.83 740.76 1213.14 C 738.347 1213.46 735.925 1213.7 733.497 1213.87 C 630.946 1220.93 535.149 1180.31 458.953 1113.47 C 412.034 1072.31 374.282 1019.22 347.046 963.073 C 296.334 858.526 267.052 702.029 259.461 586.562 C 253.655 498.256 259.468 424.645 296.114 342.666 C 314.247 302.1 336.545 267.209 365.903 233.786 C 384.164 212.996 405.604 195.162 427.963 178.945 C 496.543 129.203 567.918 103.972 652.23 98.4249 z"/>
<path transform="translate(0,0)" fill="rgb(102,157,203)" d="M 213.541 806.162 C 219.947 809.021 225.881 826.113 229.371 832.579 C 230.313 834.323 230.668 836.81 230.418 838.8 L 229.218 839.485 C 226.027 838.208 225.376 837.243 222.93 834.812 C 221 826.801 216.232 814.915 213.541 806.162 z"/>
</svg>