<svg version="1.1" xmlns="http://www.w3.org/2000/svg" style="display: block;" viewBox="0 0 1428 1332" width="357" height="333" preserveAspectRatio="none">
<path transform="translate(0,0)" fill="rgb(190,234,253)" d="M 308.219 646.308 C 286.488 663.254 257.032 694.95 227.43 667.734 C 214.716 656.045 203.07 642.052 190.864 629.623 L 92.1717 527.849 C 73.7746 508.81 55.1159 490.435 36.9587 470.92 C 22.9783 455.895 15.3635 442.249 23.2336 421.373 C 28.0404 408.623 41.6137 398.92 50.3015 388.693 C 65.7355 371.788 81.9298 355.516 98.0793 339.267 L 161.764 274.304 C 175.112 260.826 192.201 245.341 204.544 231.54 C 231.9 200.955 252.372 182.301 290.48 165.895 C 308.646 158.002 327.635 152.161 347.096 148.479 C 375.256 143.183 449.495 139.673 478.947 148.118 C 494.716 152.64 501.023 181.991 506.895 195.573 C 524.005 234.729 552.003 268.146 587.558 291.848 C 594.173 296.258 603.224 302.116 610.559 304.964 L 611.706 305.399 C 643.647 325.066 704.814 331.608 741.075 324.722 C 808.74 317.574 872.053 264.422 900.468 203.806 C 914.449 173.984 911.45 149.422 953.02 145.136 C 1028.69 137.336 1113.26 149.339 1173.1 200.609 C 1243.47 260.895 1305.22 336.489 1373.09 400.115 C 1418.09 442.349 1371.39 474.629 1341.38 505.348 L 1270.74 578.041 L 1217.83 633.159 C 1199.17 652.487 1183.76 674.489 1154.96 678.585 C 1129 682.276 1118.42 654.279 1105.94 653.86 C 1104.21 658.802 1105.42 671.511 1105.08 677.397 C 1103.4 706.176 1110.84 771.57 1091.88 794.051 C 1144.3 806.335 1270.92 794.328 1254.59 880.227 C 1250.89 899.71 1226.42 912.119 1224.19 927.551 C 1212.03 1011.37 1202.84 1108.19 1121.69 1155.36 C 1076.8 1181.47 1025.43 1185.44 973.994 1184.06 C 959.211 1183.76 934.65 1184.54 920.693 1180.26 C 915.461 1179.81 901.069 1180.24 895.196 1180.23 L 822.393 1180.78 L 605.177 1180.77 C 570.206 1180.75 528.382 1181.9 494.052 1180.26 C 452.134 1190.36 380.211 1185.02 338.08 1174.26 C 324.267 1170.73 307.952 1163.15 295.676 1155.8 C 230.824 1116.97 212.056 1056.02 201.52 985.554 C 198.928 968.22 196.776 943.791 192.279 927.852 C 186.423 907.097 162.559 897.21 157.478 873.056 C 154.389 862.671 156.159 842.713 162.375 833.786 C 173.258 818.158 199.123 810.448 217.685 807.029 C 241.748 802.965 266.121 800.669 290.393 798.196 C 301.451 797.07 311.375 798.147 322.526 795.414 C 305.426 772.629 307.99 712.701 308.395 685.357 C 308.576 673.096 307.664 658.332 308.219 646.308 z"/>
<path transform="translate(0,0)" fill="rgb(249,157,155)" d="M 1026.06 791.487 C 1029.05 791.355 1092.94 794.694 1091.88 794.051 C 1144.3 806.335 1270.92 794.328 1254.59 880.227 C 1250.89 899.71 1226.42 912.119 1224.19 927.551 C 1212.03 1011.37 1202.84 1108.19 1121.69 1155.36 C 1076.8 1181.47 1025.43 1185.44 973.994 1184.06 C 959.211 1183.76 934.65 1184.54 920.693 1180.26 C 915.461 1179.81 901.069 1180.24 895.196 1180.23 L 822.393 1180.78 L 605.177 1180.77 C 570.206 1180.75 528.382 1181.9 494.052 1180.26 C 452.134 1190.36 380.211 1185.02 338.08 1174.26 C 324.267 1170.73 307.952 1163.15 295.676 1155.8 C 230.824 1116.97 212.056 1056.02 201.52 985.554 C 198.928 968.22 196.776 943.791 192.279 927.852 C 186.423 907.097 162.559 897.21 157.478 873.056 C 154.389 862.671 156.159 842.713 162.375 833.786 C 173.258 818.158 199.123 810.448 217.685 807.029 C 241.748 802.965 266.121 800.669 290.393 798.196 C 301.451 797.07 311.375 798.147 322.526 795.414 C 331.668 793.652 378.541 791.425 387.023 792.82 C 395.988 795.04 446.088 793.204 459.361 793.8 C 513.245 796.215 569.726 806.847 617.754 832.292 C 635.582 841.737 648.52 852.889 664.668 862.594 C 677.283 863.06 693.233 861.767 706.398 861.825 C 723.99 861.901 743.192 862.654 760.573 861.736 C 772.848 853.808 783.999 839.262 799.706 830.484 C 839.906 808.019 896.984 796.007 942.251 793.846 C 970.078 792.517 998.558 794.787 1026.06 791.487 z"/>
<path transform="translate(0,0)" fill="rgb(190,234,253)" d="M 494.052 1180.26 L 493.93 1179.19 C 508.684 1173.11 531.812 1164.08 545.052 1156.72 C 589.093 1132.24 622.602 1093.58 641.844 1047.1 C 649.153 1029.44 655.167 1010.43 659.379 991.62 C 663.03 975.319 663.741 955.93 669.66 940.368 C 671.205 936.307 674.906 933.283 679.126 931.762 C 692.862 926.811 717.769 926.495 731.488 931.571 C 737.293 933.718 743.187 940.221 744.781 945.537 C 749.674 961.853 750.762 980.791 754.306 997.86 C 770.626 1076.46 803.223 1131.85 878.823 1164.22 C 884.869 1166.81 918.497 1177.97 920.693 1180.26 C 915.461 1179.81 901.069 1180.24 895.196 1180.23 L 822.393 1180.78 L 605.177 1180.77 C 570.206 1180.75 528.382 1181.9 494.052 1180.26 z"/>
<path transform="translate(0,0)" fill="rgb(190,234,253)" d="M 389.262 856.44 C 440.493 853.489 527.228 857.163 571.516 884.021 C 622.413 914.887 592.252 1021.21 564.003 1060.56 C 539.716 1094.4 506.005 1112.56 465.24 1119.72 C 416.574 1128.11 345.498 1124.79 307.832 1089.28 C 269.245 1052.91 262.046 993.538 257.785 943.229 C 256.191 924.411 259.167 898.605 272.479 883.795 C 292.385 864.151 363.094 857.443 389.262 856.44 z"/>
<path transform="translate(0,0)" fill="rgb(190,234,253)" d="M 966.948 859.431 C 1010.85 856.981 1109.54 857.658 1143.92 888.153 C 1152.3 895.579 1155.95 907.752 1156.02 918.876 C 1156.37 970.143 1147.99 1042.87 1111.77 1082.16 C 1082.89 1113.49 1042.84 1120.81 1002.75 1122.39 C 933.729 1124.25 872.124 1117 838.185 1049.58 C 818.545 1010.57 801.083 932.922 831.68 896.621 C 856.291 867.423 931.512 861.32 966.948 859.431 z"/>
<path transform="translate(0,0)" fill="rgb(61,139,193)" d="M 308.219 646.308 C 286.488 663.254 257.032 694.95 227.43 667.734 C 214.716 656.045 203.07 642.052 190.864 629.623 L 92.1717 527.849 C 73.7746 508.81 55.1159 490.435 36.9587 470.92 C 22.9783 455.895 15.3635 442.249 23.2336 421.373 C 28.0404 408.623 41.6137 398.92 50.3015 388.693 C 65.7355 371.788 81.9298 355.516 98.0793 339.267 L 161.764 274.304 C 175.112 260.826 192.201 245.341 204.544 231.54 C 231.9 200.955 252.372 182.301 290.48 165.895 C 308.646 158.002 327.635 152.161 347.096 148.479 C 375.256 143.183 449.495 139.673 478.947 148.118 C 494.716 152.64 501.023 181.991 506.895 195.573 C 524.005 234.729 552.003 268.146 587.558 291.848 C 594.173 296.258 603.224 302.116 610.559 304.964 L 611.706 305.399 C 643.647 325.066 704.814 331.608 741.075 324.722 C 808.74 317.574 872.053 264.422 900.468 203.806 C 914.449 173.984 911.45 149.422 953.02 145.136 C 1028.69 137.336 1113.26 149.339 1173.1 200.609 C 1243.47 260.895 1305.22 336.489 1373.09 400.115 C 1418.09 442.349 1371.39 474.629 1341.38 505.348 L 1270.74 578.041 L 1217.83 633.159 C 1199.17 652.487 1183.76 674.489 1154.96 678.585 C 1129 682.276 1118.42 654.279 1105.94 653.86 C 1104.21 658.802 1105.42 671.511 1105.08 677.397 C 1103.4 706.176 1110.84 771.57 1091.88 794.051 C 1092.94 794.694 1029.05 791.355 1026.06 791.487 C 1028.47 724.461 1025.67 656.483 1026.82 589.351 C 1026.95 573.133 1026.04 555.7 1027.31 539.614 C 1028.95 518.895 1063.65 509.436 1077.93 520.777 C 1105.15 542.384 1127.28 571.34 1153.53 594.42 C 1179.22 571.091 1211.31 535.782 1236.35 510.089 L 1281.8 463.291 C 1289.4 455.453 1300.91 444.189 1307.6 436.037 C 1273.29 397.847 1233.18 362.033 1198.31 325.852 C 1143.46 268.935 1096.13 216.857 1011.03 216.124 C 1000.28 216.031 990.569 215.085 979.448 216.461 C 973.441 229.401 966.875 247.113 959.298 258.756 C 924.974 311.495 868.748 360.547 809.352 381.218 C 734.876 407.137 652.744 405.199 581.691 371.961 C 532.843 348.554 491.052 312.648 460.556 267.882 C 449.623 251.589 441.562 235.752 432.646 218.39 C 420.156 216.251 408.121 217.327 395.656 218.205 C 361.77 220.592 323.686 228.75 295.712 249.467 C 262.921 273.752 231.139 308.725 202.133 338.047 L 101.944 437.57 L 258.03 593.602 C 277.217 580.09 291.237 564.11 307.538 547.475 C 321.392 533.336 334.463 513.567 356.782 517.538 C 365.691 519.124 373.597 524.205 378.741 531.651 C 384.404 539.911 385.723 550.998 385.828 560.789 C 386.075 583.759 385.954 606.807 385.967 629.779 C 385.541 684.128 385.893 738.481 387.023 792.82 C 378.541 791.425 331.668 793.652 322.526 795.414 C 305.426 772.629 307.99 712.701 308.395 685.357 C 308.576 673.096 307.664 658.332 308.219 646.308 z"/>
</svg>