<svg version="1.1" xmlns="http://www.w3.org/2000/svg" style="display: block;" viewBox="0 0 1428 1332" width="357" height="333" preserveAspectRatio="none">
<path transform="translate(0,0)" fill="rgb(60,138,191)" d="M 444.195 36.5 L 976.02 36.1669 L 1126.9 35.9127 C 1156.51 35.8377 1203.45 34.4059 1230.94 39.3063 C 1268.03 45.901 1302.32 63.366 1329.47 89.4846 C 1356.04 115.251 1374.15 148.492 1381.38 184.793 C 1386.53 211.83 1384.65 260.93 1384.55 290.162 L 1384.19 447.503 L 1383.32 1077.07 C 1383.84 1141.9 1378.98 1185.45 1330.12 1234.23 C 1268.24 1296.02 1202.74 1291.01 1121.81 1291.69 L 989.75 1292.43 C 966.168 1293.45 937.841 1292.95 913.96 1293.07 L 800.79 1294 L 444.854 1296.58 L 301.23 1297.88 C 270.964 1298.03 220.28 1300.21 193.203 1293.43 C 162.965 1285.66 135.351 1269.95 113.211 1247.94 C 60.5899 1196.33 56.4023 1149.12 57.1377 1079.47 C 57.5409 1041.28 57.9558 1001.64 57.9355 963.407 L 58.5728 481.941 L 59.074 307.133 C 59.0658 278.826 57.4808 220.473 61.9871 195.366 C 69.3349 156.44 88.0572 120.567 115.788 92.279 C 127.191 80.7637 138.875 73.0597 152.508 64.6756 C 205.98 31.7918 259.066 37.1447 319.232 36.9729 L 444.195 36.5 z M 1302.69 595.621 C 1302.93 582.551 1302.86 569.477 1302.49 556.409 C 1302.82 514.291 1302.9 472.17 1302.75 430.05 L 1303.16 307.741 L 1303.02 251.084 C 1302.92 209.864 1303.4 180.83 1272.04 148.667 C 1248.25 124.267 1220.03 118.694 1187.23 119.105 C 1120.59 119.275 1053.96 119.663 987.369 119.812 L 543.873 120.841 L 335.199 121.229 L 270.871 121.459 C 230.315 121.857 206.389 122.907 175.524 153.289 C 149.072 179.325 144.021 204.128 143.792 239.992 L 142.067 859.773 L 141.84 1033.14 C 141.766 1062.87 140.713 1097.43 143.204 1126.68 C 144.922 1146.88 157.139 1173.52 171.823 1187.13 C 202.164 1215.26 227.544 1217.69 265.995 1217.71 L 961.812 1212.22 L 1125.02 1210.35 C 1178.03 1209.95 1228.53 1219.43 1270.03 1177.78 C 1308.83 1138.83 1300.86 1091.74 1301.68 1041.72 C 1302.22 937.368 1301.9 833.056 1302.17 728.785 L 1302.27 641.398 C 1302.36 629.788 1303.45 606.26 1302.69 595.621 z"/>
<path transform="translate(0,0)" fill="rgb(251,158,156)" d="M 709.81 429.603 C 840.409 421.464 952.978 520.519 961.519 651.093 C 970.059 781.667 871.352 894.54 740.805 903.483 C 609.688 912.464 496.215 813.232 487.637 682.088 C 479.059 550.944 578.64 437.777 709.81 429.603 z"/>
<path transform="translate(0,0)" fill="rgb(251,158,156)" d="M 720.599 231.179 C 750.573 229.182 764.957 250.58 768.499 278.233 C 772.762 311.515 776.344 375.06 731.905 381.803 C 697.511 383.15 683.347 359.576 681.305 328.091 C 678.835 289.992 676.066 243.947 720.599 231.179 z"/>
<path transform="translate(0,0)" fill="rgb(251,158,156)" d="M 495.397 862.259 C 515.853 861.268 529.547 875.379 530.944 895.411 C 532.766 921.532 501.101 948.479 483.987 965.767 C 467.432 982.492 456.591 993.861 432.789 995.206 C 425.547 994.817 418.976 992.496 412.915 988.502 C 404.841 983.139 399.231 974.784 397.322 965.281 C 392.872 942.399 416.147 918.011 430.801 902.954 C 450.438 882.778 466.764 867.603 495.397 862.259 z"/>
<path transform="translate(0,0)" fill="rgb(251,158,156)" d="M 999.895 345.409 C 1010.04 344.354 1021.47 344.177 1029.77 351.153 C 1071.08 386.011 1019.31 433.037 991.436 455.851 C 978.387 466.533 973.657 469.352 957.543 471.619 C 941.448 473.217 925.677 465.522 918.126 450.984 C 905.126 425.954 928.95 401.233 945.734 385.084 C 961.28 370.128 978.804 351.971 999.895 345.409 z"/>
<path transform="translate(0,0)" fill="rgb(251,158,156)" d="M 719.488 958.213 C 748.729 956.625 764.293 971.69 767.892 1001.22 C 771.851 1033.7 772.482 1092.41 729.899 1098.39 C 705.984 1100.15 686.45 1084.62 682.121 1060.81 C 677.362 1034.64 676.65 999.196 690.359 975.618 C 696.943 964.292 707.43 960.828 719.488 958.213 z"/>
<path transform="translate(0,0)" fill="rgb(251,158,156)" d="M 953.066 856.328 C 979.82 854.686 1037.14 910.709 1044 937.844 C 1050.2 962.33 1034.12 980.216 1011.23 986.006 C 981.924 984.752 958.23 956.006 939.702 936.031 C 929.245 924.756 919.969 913.166 917.381 897.57 C 913.579 874.649 931.922 859.042 953.066 856.328 z"/>
<path transform="translate(0,0)" fill="rgb(251,158,156)" d="M 425.686 349.326 C 438.063 348.385 448.156 347.117 459.339 353.81 C 478.35 365.097 493.993 380.191 510.144 395.226 C 526.45 410.404 539.858 432.169 527.311 454.14 C 521.481 464.349 516.371 468.372 505.151 471.466 C 467.454 475.23 449.004 449.367 424.332 425.666 C 399.678 401.982 386.079 366.385 425.686 349.326 z"/>
<path transform="translate(0,0)" fill="rgb(251,158,156)" d="M 1065.85 625.406 C 1073.34 624.608 1082.4 625.708 1090.04 625.172 C 1115.85 623.364 1161.07 624.812 1164.55 659.845 C 1165.51 669.776 1162.53 679.687 1156.25 687.439 C 1145.6 700.383 1128.32 704.24 1112.43 705.637 C 1080.7 708.031 1020.38 713.045 1015.23 669.164 C 1011.35 636.089 1039.34 628.416 1065.85 625.406 z"/>
<path transform="translate(0,0)" fill="rgb(251,158,156)" d="M 341.287 628.401 C 341.369 628.389 341.45 628.376 341.532 628.364 C 366.839 627.652 402.078 626.143 422.786 642.751 C 438.752 655.556 439.822 678.816 425.829 693.576 C 412.714 707.411 399.023 709.086 380.968 709.936 C 365.726 711.48 349.646 710.616 334.213 709.571 C 314.845 708.888 286.862 695.401 285.443 672.985 C 283.217 637.831 316.056 631.161 341.287 628.401 z"/>
</svg>